<?xml version="1.0" encoding="UTF-8" standalone="no"?>
<svg
   id="visual"
   preserveAspectRatio="none"
   viewBox="0 0 845 40"
   width="845"
   height="40"
   version="1.1"
   sodipodi:docname="layered-waves-haikei.svg"
   inkscape:version="1.2.2 (b0a8486541, 2022-12-01, custom)"
   xmlns:inkscape="http://www.inkscape.org/namespaces/inkscape"
   xmlns:sodipodi="http://sodipodi.sourceforge.net/DTD/sodipodi-0.dtd"
   xmlns="http://www.w3.org/2000/svg"
   xmlns:svg="http://www.w3.org/2000/svg">
  <defs
     id="defs169" />
  <sodipodi:namedview
     id="namedview167"
     pagecolor="#ffffff"
     bordercolor="#000000"
     borderopacity="0.25"
     inkscape:showpageshadow="2"
     inkscape:pageopacity="0.0"
     inkscape:pagecheckerboard="0"
     inkscape:deskcolor="#d1d1d1"
     showgrid="false"
     showguides="true"
     inkscape:zoom="2.8970414"
     inkscape:cx="806.33988"
     inkscape:cy="71.969976"
     inkscape:window-width="1366"
     inkscape:window-height="704"
     inkscape:window-x="0"
     inkscape:window-y="0"
     inkscape:window-maximized="1"
     inkscape:current-layer="visual" />
  <!-- <rect x="0" y="0" width="960" height="540" fill="#141414"></rect> -->
  <path
     d="m 0,28.48166 8.1923105,1.696099 c 8.2803995,1.728101 24.6650205,5.120298 41.3139105,6.784396 16.560799,1.664096 33.297778,1.536089 49.858577,1.184069 16.648892,-0.384023 33.033512,-1.02406 49.682392,-2.368139 16.56081,-1.312076 33.29778,-3.360195 49.85859,-2.336136 16.64889,1.02406 33.0335,5.056295 49.6824,6.016351 16.5608,0.960056 33.29777,-1.152067 49.85858,-2.240131 16.64888,-1.056061 33.03351,-1.056061 49.68239,-0.192011 16.5608,0.832049 33.29778,2.560149 49.85858,2.91217 16.6489,0.384022 33.03351,-0.576034 49.6824,-1.152067 16.5608,-0.608036 33.29778,-0.800047 49.85857,-2.880168 16.6489,-2.080121 33.03352,-6.048353 49.68241,-5.600327 16.5608,0.416024 33.29777,5.216305 49.85858,6.080355 16.64888,0.832048 33.0335,-2.240131 49.6824,-2.944172 16.56079,-0.704041 33.29778,1.02406 49.85857,2.560149 16.64889,1.53609 33.03352,2.944172 49.6824,1.664097 16.56081,-1.280074 33.29778,-5.248305 49.85858,-5.984348 16.64889,-0.736043 33.03351,1.696098 41.31391,2.944171 l 8.19231,1.216071 V 0 h -8.19231 c -8.2804,0 -24.66502,0 -41.31391,0 -16.5608,0 -33.29777,0 -49.85858,0 -16.64888,0 -33.03351,0 -49.6824,0 -16.56079,0 -33.29778,0 -49.85857,0 -16.6489,0 -33.03352,0 -49.6824,0 -16.56081,0 -33.29778,0 -49.85858,0 -16.64889,0 -33.03351,0 -49.68241,0 -16.56079,0 -33.29777,0 -49.85857,0 -16.64889,0 -33.0335,0 -49.6824,0 -16.5608,0 -33.29778,0 -49.85858,0 -16.64888,0 -33.03351,0 -49.68239,0 -16.56081,0 -33.29778,0 -49.85858,0 -16.6489,0 -33.03351,0 -49.6824,0 C 182.34497,0 165.608,0 149.04719,0 132.39831,0 116.01369,0 99.364798,0 82.803999,0 66.06702,0 49.506221,0 32.857331,0 16.47271,0 8.1923105,0 H 0 Z"
     fill="#141414"
     opacity="0.25"
     id="path158"
     style="stroke-width:0.530945" />
  <path
     d="m 0,17.921045 8.1923105,0.320018 c 8.2803995,0.320019 24.6650205,0.960056 41.3139105,3.200187 16.560799,2.240131 33.297778,6.080354 49.858577,6.880401 16.648892,0.800046 33.033512,-1.440084 49.682392,-1.984116 16.56081,-0.51203 33.29778,0.640037 49.85859,0.384023 16.64889,-0.256015 33.0335,-1.984116 49.6824,-3.4242 16.5608,-1.440084 33.29777,-2.592151 49.85858,-2.016118 16.64888,0.576034 33.03351,2.944172 49.68239,5.120299 16.5608,2.176127 33.29778,4.224246 49.85858,3.936229 16.6489,-0.256015 33.03351,-2.816164 49.6824,-3.936229 16.5608,-1.120065 33.29778,-0.800047 49.85857,-1.984116 16.6489,-1.152067 33.03352,-3.840224 49.68241,-4.960289 16.5608,-1.120065 33.29777,-0.672039 49.85858,-0.09601 16.64888,0.576034 33.0335,1.344079 49.6824,1.216071 16.56079,-0.09601 33.29778,-1.056061 49.85857,0.320019 16.64889,1.408082 33.03352,5.120299 49.6824,6.944405 16.56081,1.824106 33.29778,1.696098 49.85858,1.824106 16.64889,0.09601 33.03351,0.416024 41.31391,0.576034 l 8.19231,0.160009 V 0 h -8.19231 c -8.2804,0 -24.66502,0 -41.31391,0 -16.5608,0 -33.29777,0 -49.85858,0 -16.64888,0 -33.03351,0 -49.6824,0 -16.56079,0 -33.29778,0 -49.85857,0 -16.6489,0 -33.03352,0 -49.6824,0 -16.56081,0 -33.29778,0 -49.85858,0 -16.64889,0 -33.03351,0 -49.68241,0 -16.56079,0 -33.29777,0 -49.85857,0 -16.64889,0 -33.0335,0 -49.6824,0 -16.5608,0 -33.29778,0 -49.85858,0 -16.64888,0 -33.03351,0 -49.68239,0 -16.56081,0 -33.29778,0 -49.85858,0 -16.6489,0 -33.03351,0 -49.6824,0 C 182.34497,0 165.608,0 149.04719,0 132.39831,0 116.01369,0 99.364798,0 82.803999,0 66.06702,0 49.506221,0 32.857331,0 16.47271,0 8.1923105,0 H 0 Z"
     fill="#141414"
     opacity="0.5"
     id="path160"
     style="stroke-width:0.530945" />
  <path
     d="m 0,23.041343 8.1923105,-1.53609 C 16.47271,19.937162 32.857331,16.864983 49.506221,15.61691 c 16.560799,-1.216071 33.297778,-0.576033 49.858577,0.640037 16.648892,1.248073 33.033512,3.040178 49.682392,3.200187 16.56081,0.160009 33.29778,-1.312077 49.85859,-1.312077 16.64889,0 33.0335,1.472086 49.6824,1.312077 16.5608,-0.160009 33.29777,-1.952114 49.85858,-2.24013 16.64888,-0.256015 33.03351,1.024059 49.68239,1.920112 16.5608,0.928053 33.29778,1.440083 49.85858,0.800046 16.6489,-0.640037 33.03351,-2.432142 49.6824,-2.880168 16.5608,-0.416024 33.29778,0.544032 49.85857,1.440084 16.6489,0.928054 33.03352,1.760103 49.68241,2.304134 16.5608,0.544032 33.29777,0.736043 49.85858,-0.576033 16.64888,-1.344079 33.0335,-4.224246 49.6824,-5.600327 16.56079,-1.408082 33.29778,-1.280074 49.85857,0.032 16.64889,1.344079 33.03352,3.904228 49.6824,4.80028 16.56081,0.928054 33.29778,0.160009 49.85858,-1.440084 16.64889,-1.600093 33.03351,-4.032235 41.31391,-5.280308 l 8.19231,-1.216068 V 0 h -8.19231 c -8.2804,0 -24.66502,0 -41.31391,0 -16.5608,0 -33.29777,0 -49.85858,0 -16.64888,0 -33.03351,0 -49.6824,0 -16.56079,0 -33.29778,0 -49.85857,0 -16.6489,0 -33.03352,0 -49.6824,0 -16.56081,0 -33.29778,0 -49.85858,0 -16.64889,0 -33.03351,0 -49.68241,0 -16.56079,0 -33.29777,0 -49.85857,0 -16.64889,0 -33.0335,0 -49.6824,0 -16.5608,0 -33.29778,0 -49.85858,0 -16.64888,0 -33.03351,0 -49.68239,0 -16.56081,0 -33.29778,0 -49.85858,0 -16.6489,0 -33.03351,0 -49.6824,0 C 182.34497,0 165.608,0 149.04719,0 132.39831,0 116.01369,0 99.364798,0 82.803999,0 66.06702,0 49.506221,0 32.857331,0 16.47271,0 8.1923105,0 H 0 Z"
     fill="#141414"
     opacity="0.75"
     id="path162"
     style="stroke-width:0.530945" />
  <path
     d="m 0,7.6804477 8.1923105,0.5440317 c 8.2803995,0.5120297 24.6650205,1.600093 41.3139105,2.1761266 16.560799,0.576034 33.297778,0.704041 49.858577,0.640038 16.648892,-0.064 33.033512,-0.256015 49.682392,0.064 16.56081,0.320019 33.29778,1.152068 49.85859,0.320019 16.64889,-0.864051 33.0335,-3.4241999 49.6824,-3.8402239 16.5608,-0.448026 33.29777,1.2800746 49.85858,2.5601489 16.64888,1.280075 33.03351,2.112124 49.68239,2.016118 16.5608,-0.09601 33.29778,-1.184069 49.85858,-2.2401309 16.6489,-1.0560614 33.03351,-2.1441247 49.6824,-1.4400836 16.5608,0.7040406 33.29778,3.1361825 49.85857,3.1041805 16.6489,-0.064 33.03352,-2.6241526 49.68241,-2.7201583 16.5608,-0.1280076 33.29777,2.2401303 49.85858,2.2401303 16.64888,0 33.0335,-2.3681379 49.6824,-2.5281473 16.56079,-0.160009 33.29778,1.8881103 49.85857,2.5601493 16.64889,0.704041 33.03352,0.064 49.6824,0 16.56081,-0.032 33.29778,0.480028 49.85858,0.224013 16.64889,-0.256015 33.03351,-1.344078 41.31391,-1.856108 l 8.19231,-0.5440286 V 0 h -8.19231 c -8.2804,0 -24.66502,0 -41.31391,0 -16.5608,0 -33.29777,0 -49.85858,0 -16.64888,0 -33.03351,0 -49.6824,0 -16.56079,0 -33.29778,0 -49.85857,0 -16.6489,0 -33.03352,0 -49.6824,0 -16.56081,0 -33.29778,0 -49.85858,0 -16.64889,0 -33.03351,0 -49.68241,0 -16.56079,0 -33.29777,0 -49.85857,0 -16.64889,0 -33.0335,0 -49.6824,0 -16.5608,0 -33.29778,0 -49.85858,0 -16.64888,0 -33.03351,0 -49.68239,0 -16.56081,0 -33.29778,0 -49.85858,0 -16.6489,0 -33.03351,0 -49.6824,0 C 182.34497,0 165.608,0 149.04719,0 132.39831,0 116.01369,0 99.364798,0 82.803999,0 66.06702,0 49.506221,0 32.857331,0 16.47271,0 8.1923105,0 H 0 Z"
     fill="#141414"
     opacity="1"
     id="path164"
     style="stroke-width:0.530945" />
</svg>
