<svg id="visual" viewBox="0 0 845 120" width="845" height="120" xmlns="http://www.w3.org/2000/svg" xmlns:xlink="http://www.w3.org/1999/xlink" version="1.1">
    <!-- <rect x="0" y="0" width="960" height="540" fill="#141414"></rect> --> 
    <path d="M0 89L9.3 94.3C18.7 99.7 37.3 110.3 56.2 115.5C75 120.7 94 120.3 112.8 119.2C131.7 118 150.3 116 169.2 111.8C188 107.7 207 101.3 225.8 104.5C244.7 107.7 263.3 120.3 282.2 123.3C301 126.3 320 119.7 338.8 116.3C357.7 113 376.3 113 395.2 115.7C414 118.3 433 123.7 451.8 124.8C470.7 126 489.3 123 508.2 121.2C527 119.3 546 118.7 564.8 112.2C583.7 105.7 602.3 93.3 621.2 94.7C640 96 659 111 677.8 113.7C696.7 116.3 715.3 106.7 734.2 104.5C753 102.3 772 107.7 790.8 112.5C809.7 117.3 828.3 121.7 847.2 117.7C866 113.7 885 101.3 903.8 99C922.7 96.7 941.3 104.3 950.7 108.2L960 112L960 0L950.7 0C941.3 0 922.7 0 903.8 0C885 0 866 0 847.2 0C828.3 0 809.7 0 790.8 0C772 0 753 0 734.2 0C715.3 0 696.7 0 677.8 0C659 0 640 0 621.2 0C602.3 0 583.7 0 564.8 0C546 0 527 0 508.2 0C489.3 0 470.7 0 451.8 0C433 0 414 0 395.2 0C376.3 0 357.7 0 338.8 0C320 0 301 0 282.2 0C263.3 0 244.7 0 225.8 0C207 0 188 0 169.2 0C150.3 0 131.7 0 112.8 0C94 0 75 0 56.2 0C37.3 0 18.7 0 9.3 0L0 0Z" fill="#141414" opacity="0.1">
    </path>
    <path d="M0 56L9.3 57C18.7 58 37.3 60 56.2 67C75 74 94 86 112.8 88.5C131.7 91 150.3 84 169.2 82.3C188 80.7 207 84.3 225.8 83.5C244.7 82.7 263.3 77.3 282.2 72.8C301 68.3 320 64.7 338.8 66.5C357.7 68.3 376.3 75.7 395.2 82.5C414 89.3 433 95.7 451.8 94.8C470.7 94 489.3 86 508.2 82.5C527 79 546 80 564.8 76.3C583.7 72.7 602.3 64.3 621.2 60.8C640 57.3 659 58.7 677.8 60.5C696.7 62.3 715.3 64.7 734.2 64.3C753 64 772 61 790.8 65.3C809.7 69.7 828.3 81.3 847.2 87C866 92.7 885 92.3 903.8 92.7C922.7 93 941.3 94 950.7 94.5L960 95L960 0L950.7 0C941.3 0 922.7 0 903.8 0C885 0 866 0 847.2 0C828.3 0 809.7 0 790.8 0C772 0 753 0 734.2 0C715.3 0 696.7 0 677.8 0C659 0 640 0 621.2 0C602.3 0 583.7 0 564.8 0C546 0 527 0 508.2 0C489.3 0 470.7 0 451.8 0C433 0 414 0 395.2 0C376.3 0 357.7 0 338.8 0C320 0 301 0 282.2 0C263.3 0 244.7 0 225.8 0C207 0 188 0 169.2 0C150.3 0 131.7 0 112.8 0C94 0 75 0 56.2 0C37.3 0 18.7 0 9.3 0L0 0Z" fill="#141414" opacity="0.25">
    </path>
    <path d="M0 72L9.3 67.2C18.7 62.3 37.3 52.7 56.2 48.8C75 45 94 47 112.8 50.8C131.7 54.7 150.3 60.3 169.2 60.8C188 61.3 207 56.7 225.8 56.7C244.7 56.7 263.3 61.3 282.2 60.8C301 60.3 320 54.7 338.8 53.8C357.7 53 376.3 57 395.2 59.8C414 62.7 433 64.3 451.8 62.3C470.7 60.3 489.3 54.7 508.2 53.3C527 52 546 55 564.8 57.8C583.7 60.7 602.3 63.3 621.2 65C640 66.7 659 67.3 677.8 63.2C696.7 59 715.3 50 734.2 45.7C753 41.3 772 41.7 790.8 45.8C809.7 50 828.3 58 847.2 60.8C866 63.7 885 61.3 903.8 56.3C922.7 51.3 941.3 43.7 950.7 39.8L960 36L960 0L950.7 0C941.3 0 922.7 0 903.8 0C885 0 866 0 847.2 0C828.3 0 809.7 0 790.8 0C772 0 753 0 734.2 0C715.3 0 696.7 0 677.8 0C659 0 640 0 621.2 0C602.3 0 583.7 0 564.8 0C546 0 527 0 508.2 0C489.3 0 470.7 0 451.8 0C433 0 414 0 395.2 0C376.3 0 357.7 0 338.8 0C320 0 301 0 282.2 0C263.3 0 244.7 0 225.8 0C207 0 188 0 169.2 0C150.3 0 131.7 0 112.8 0C94 0 75 0 56.2 0C37.3 0 18.7 0 9.3 0L0 0Z" fill="#141414" opacity="0.5">
    </path>
    <path d="M0 24L9.3 25.7C18.7 27.3 37.3 30.7 56.2 32.5C75 34.3 94 34.7 112.8 34.5C131.7 34.3 150.3 33.7 169.2 34.7C188 35.7 207 38.3 225.8 35.7C244.7 33 263.3 25 282.2 23.7C301 22.3 320 27.7 338.8 31.7C357.7 35.7 376.3 38.3 395.2 38C414 37.7 433 34.3 451.8 31C470.7 27.7 489.3 24.3 508.2 26.5C527 28.7 546 36.3 564.8 36.2C583.7 36 602.3 28 621.2 27.7C640 27.3 659 34.7 677.8 34.7C696.7 34.7 715.3 27.3 734.2 26.8C753 26.3 772 32.7 790.8 34.8C809.7 37 828.3 35 847.2 34.8C866 34.7 885 36.3 903.8 35.5C922.7 34.7 941.3 31.3 950.7 29.7L960 28L960 0L950.7 0C941.3 0 922.7 0 903.8 0C885 0 866 0 847.2 0C828.3 0 809.7 0 790.8 0C772 0 753 0 734.2 0C715.3 0 696.7 0 677.8 0C659 0 640 0 621.2 0C602.3 0 583.7 0 564.8 0C546 0 527 0 508.2 0C489.3 0 470.7 0 451.8 0C433 0 414 0 395.2 0C376.3 0 357.7 0 338.8 0C320 0 301 0 282.2 0C263.3 0 244.7 0 225.8 0C207 0 188 0 169.2 0C150.3 0 131.7 0 112.8 0C94 0 75 0 56.2 0C37.3 0 18.7 0 9.3 0L0 0Z" fill="#141414" opacity="0.75">
    </path>
</svg>
